# 3ds Max Wavefront OBJ Exporter v0.97b - (c)2007 guruware
# File Created: 14.12.2020 05:55:46

mtllib floor.mtl

#
# object Plane001
#

v  -14.0385 0.0000 5.2803
v  -4.6502 0.0000 5.2803
v  -4.6502 0.0000 -5.2803
v  -14.0385 0.0000 -5.2803
v  -3.7497 0.0000 5.2803
v  -3.7497 0.0000 -5.2803
v  -14.0385 0.0000 13.6113
v  -4.6502 0.0000 13.6113
v  -14.0385 0.0000 18.0691
v  -4.6502 0.0000 18.0691
v  8.9070 0.0000 18.0691
v  8.9070 0.0000 13.6113
v  13.5911 0.0000 18.0691
v  13.5911 0.0000 13.6113
v  13.5911 0.0000 3.1488
v  8.9070 0.0000 3.1488
v  16.6974 0.0000 0.9640
v  13.5911 0.0000 0.9640
v  16.6974 0.0000 3.1488
v  52.7783 0.0000 3.1488
v  52.7783 0.0000 0.9640
v  13.5911 0.0000 -19.0029
v  8.9070 0.0000 -19.0029
v  8.9070 0.0000 0.9640
v  52.7783 0.0000 -19.0029
v  16.6974 0.0000 -19.0029
v  13.5911 0.0000 -21.2936
v  8.9070 0.0000 -21.2936
v  52.7783 0.0000 -21.2936
v  16.6974 0.0000 -21.2936
v  16.6974 0.0000 18.0691
v  16.6974 0.0000 13.6113
v  13.5911 0.0000 -25.7224
v  8.9070 0.0000 -25.7224
v  -4.6502 0.0000 -25.7224
v  -4.6502 0.0000 -21.2936
v  -14.0385 0.0000 -25.7224
v  -14.0385 0.0000 -21.2936
v  -14.0385 0.0000 -16.4996
v  -4.6502 0.0000 -16.4996
v  7.9121 0.0000 5.2803
v  7.9121 0.0000 -5.2803
v  7.9121 0.0000 -17.9895
v  -3.7497 0.0000 -17.9895
v  -26.3873 0.0000 5.2803
v  -26.3873 0.0000 13.6113
v  -26.3873 0.0000 18.0691
v  -36.5401 0.0000 5.2803
v  -36.5401 0.0000 13.6113
v  -36.5401 0.0000 18.0691
v  -26.3873 0.0000 -16.4996
v  -36.5401 0.0000 -16.4996
v  -26.3873 0.0000 -21.2936
v  -36.5401 0.0000 -21.2936
# 54 vertices

vn 0.0000 1.0000 -0.0000
# 1 vertex normals

vt 0.3814 0.3690 0.0000
vt 0.3814 0.2451 0.0000
vt 0.5790 0.2451 0.0000
vt 0.5790 0.3690 0.0000
vt 0.3814 0.2332 0.0000
vt 0.5790 0.2332 0.0000
vt 0.2255 0.3690 0.0000
vt 0.2255 0.2451 0.0000
vt 0.1421 0.3690 0.0000
vt 0.1421 0.2451 0.0000
vt 0.1421 0.0662 0.0000
vt 0.2255 0.0662 0.0000
vt 0.0845 0.0487 0.0000
vt 0.0845 0.1552 0.0000
vt 0.0055 0.1552 0.0000
vt 0.0055 0.0487 0.0000
vt 0.0845 0.4054 0.0000
vt 0.0055 0.4054 0.0000
vt 0.1368 0.4576 0.0000
vt 0.0845 0.4576 0.0000
vt 0.1368 0.4054 0.0000
vt 0.7451 0.4054 0.0000
vt 0.7451 0.4576 0.0000
vt 0.0845 0.9350 0.0000
vt 0.0055 0.9350 0.0000
vt 0.0055 0.4576 0.0000
vt 0.7451 0.9350 0.0000
vt 0.1368 0.9350 0.0000
vt 0.0845 0.9898 0.0000
vt 0.0055 0.9898 0.0000
vt 0.7451 0.9898 0.0000
vt 0.1368 0.9898 0.0000
vt 0.1368 0.0487 0.0000
vt 0.1368 0.1552 0.0000
vt 0.8787 0.0662 0.0000
vt 0.8787 0.0044 0.0000
vt 0.9616 0.0044 0.0000
vt 0.9616 0.0662 0.0000
vt 0.9616 0.2451 0.0000
vt 0.8787 0.2451 0.0000
vt 0.9616 0.3690 0.0000
vt 0.8787 0.3690 0.0000
vt 0.7890 0.3690 0.0000
vt 0.7890 0.2451 0.0000
vt 0.3814 0.0793 0.0000
vt 0.5790 0.0793 0.0000
vt 0.8169 0.0793 0.0000
vt 0.8169 0.2332 0.0000
vt 0.9975 0.4438 0.0000
vt 0.9968 0.5731 0.0000
vt 0.8618 0.5723 0.0000
vt 0.8625 0.4431 0.0000
vt 0.9979 0.3747 0.0000
vt 0.8629 0.3740 0.0000
vt 0.7508 0.5717 0.0000
vt 0.7515 0.4425 0.0000
vt 0.7518 0.3734 0.0000
vt 0.8600 0.9101 0.0000
vt 0.7489 0.9095 0.0000
vt 0.8596 0.9845 0.0000
vt 0.7485 0.9839 0.0000
vt 0.9950 0.9109 0.0000
vt 0.9946 0.9852 0.0000
# 63 texture coords

o Plane001
g Plane001
usemtl wire_027027031
s 1
f 1/1/1 2/2/1 3/3/1 
f 3/3/1 4/4/1 1/1/1 
f 5/5/1 6/6/1 3/3/1 
f 3/3/1 2/2/1 5/5/1 
s off
f 1/1/1 7/7/1 8/8/1 
f 8/8/1 2/2/1 1/1/1 
f 9/9/1 10/10/1 8/8/1 
f 8/8/1 7/7/1 9/9/1 
f 10/10/1 11/11/1 12/12/1 
f 12/12/1 8/8/1 10/10/1 
f 13/13/1 14/14/1 12/15/1 
f 12/15/1 11/16/1 13/13/1 
f 14/14/1 15/17/1 16/18/1 
f 16/18/1 12/15/1 14/14/1 
f 17/19/1 18/20/1 15/17/1 
f 15/17/1 19/21/1 17/19/1 
f 17/19/1 19/21/1 20/22/1 
f 20/22/1 21/23/1 17/19/1 
f 18/20/1 22/24/1 23/25/1 
f 23/25/1 24/26/1 18/20/1 
f 17/19/1 21/23/1 25/27/1 
f 25/27/1 26/28/1 17/19/1 
f 22/24/1 27/29/1 28/30/1 
f 28/30/1 23/25/1 22/24/1 
f 26/28/1 25/27/1 29/31/1 
f 29/31/1 30/32/1 26/28/1 
f 31/33/1 32/34/1 14/14/1 
f 14/14/1 13/13/1 31/33/1 
f 32/34/1 19/21/1 15/17/1 
f 15/17/1 14/14/1 32/34/1 
f 24/26/1 16/18/1 15/17/1 
f 15/17/1 18/20/1 24/26/1 
f 17/19/1 26/28/1 22/24/1 
f 22/24/1 18/20/1 17/19/1 
f 26/28/1 30/32/1 27/29/1 
f 27/29/1 22/24/1 26/28/1 
f 28/35/1 27/36/1 33/37/1 
f 33/37/1 34/38/1 28/35/1 
f 28/35/1 34/38/1 35/39/1 
f 35/39/1 36/40/1 28/35/1 
f 36/40/1 35/39/1 37/41/1 
f 37/41/1 38/42/1 36/40/1 
s 2
f 38/42/1 39/43/1 40/44/1 
f 40/44/1 36/40/1 38/42/1 
s 1
f 41/45/1 42/46/1 6/6/1 
f 6/6/1 5/5/1 41/45/1 
s off
f 6/6/1 42/46/1 43/47/1 
f 43/47/1 44/48/1 6/6/1 
s 2
f 4/4/1 3/3/1 40/44/1 
f 40/44/1 39/43/1 4/4/1 
s off
f 7/49/1 1/50/1 45/51/1 
f 45/51/1 46/52/1 7/49/1 
f 9/53/1 7/49/1 46/52/1 
f 46/52/1 47/54/1 9/53/1 
f 46/52/1 45/51/1 48/55/1 
f 48/55/1 49/56/1 46/52/1 
f 47/54/1 46/52/1 49/56/1 
f 49/56/1 50/57/1 47/54/1 
f 48/55/1 45/51/1 51/58/1 
f 51/58/1 52/59/1 48/55/1 
f 52/59/1 51/58/1 53/60/1 
f 53/60/1 54/61/1 52/59/1 
s 1
f 51/58/1 39/62/1 38/63/1 
f 38/63/1 53/60/1 51/58/1 
# 64 faces

