# 3ds Max Wavefront OBJ Exporter v0.97b - (c)2007 guruware
# File Created: 14.12.2020 18:27:06

mtllib floor.mtl

#
# object floor
#

v  -17.9773 0.0000 6.7618
v  -5.9550 0.0000 6.7618
v  -5.9550 0.0000 -6.7618
v  -17.9773 0.0000 -6.7618
v  -4.8018 0.0000 6.7618
v  -4.8018 0.0000 -6.7618
v  -17.9773 0.0000 17.4303
v  -5.9550 0.0000 17.4303
v  -17.9773 0.0000 23.1388
v  -5.9550 0.0000 23.1388
v  11.4061 0.0000 23.1388
v  11.4061 0.0000 17.4303
v  17.4044 0.0000 23.1388
v  17.4044 0.0000 17.4303
v  17.4044 0.0000 4.0323
v  11.4061 0.0000 4.0323
v  21.3823 0.0000 1.2345
v  17.4044 0.0000 1.2345
v  21.3823 0.0000 4.0323
v  24.3053 -0.1050 4.0323
v  24.3053 -0.1050 1.2345
v  24.3046 -0.1050 1.2345
v  24.3046 -0.1050 4.0323
v  17.4044 0.0000 -24.3346
v  11.4061 0.0000 -24.3346
v  11.4061 0.0000 1.2345
v  24.3053 -0.1050 -24.3346
v  24.3046 -0.1050 -24.3346
v  17.4044 0.0000 -27.2680
v  11.4061 0.0000 -27.2680
v  24.3053 -0.1050 -27.2680
v  24.3046 -0.1050 -27.2680
v  21.3823 0.0000 23.1388
v  21.3823 0.0000 17.4303
v  21.3823 0.0000 -24.3346
v  21.3823 0.0000 -27.2680
v  17.4044 0.0000 -32.9394
v  11.4061 0.0000 -32.9394
v  -5.9550 0.0000 -32.9394
v  -5.9550 0.0000 -27.2680
v  -17.9773 0.0000 -32.9394
v  -17.9773 0.0000 -27.2680
v  -17.9773 0.0000 -21.1290
v  -5.9550 0.0000 -21.1290
v  10.1320 0.0000 6.7618
v  10.1320 0.0000 -6.7618
v  10.1320 0.0000 -23.0369
v  -4.8018 0.0000 -23.0369
v  -25.8845 -0.0747 6.7618
v  -25.8845 -0.0747 17.4303
v  -25.8837 -0.0747 17.4303
v  -25.8837 -0.0747 6.7618
v  -25.8845 -0.0747 23.1388
v  -25.8837 -0.0747 23.1388
v  -33.7909 0.0000 17.4303
v  -33.7909 0.0000 6.7618
v  -46.7923 0.0000 6.7618
v  -46.7923 0.0000 17.4303
v  -33.7909 0.0000 23.1388
v  -46.7923 0.0000 23.1388
v  -33.7909 0.0000 -21.1290
v  -46.7923 0.0000 -21.1290
v  -33.7909 0.0000 -27.2680
v  -46.7923 0.0000 -27.2680
v  -25.8840 -0.0738 -21.1290
v  -25.8840 -0.0738 -27.2680
v  -25.8842 -0.0738 -27.2680
v  -25.8842 -0.0738 -21.1290
v  67.5866 0.0000 4.0323
v  67.5866 0.0000 1.2345
v  24.4015 0.0000 1.2345
v  24.4015 0.0000 4.0323
v  24.2084 0.0000 4.0323
v  24.2084 0.0000 1.2345
v  67.5866 0.0000 -24.3346
v  24.4015 0.0000 -24.3346
v  24.2084 0.0000 -24.3346
v  67.5866 0.0000 -27.2680
v  24.4015 0.0000 -27.2680
v  24.2084 0.0000 -27.2680
v  -25.9389 0.0000 17.4303
v  -25.9389 0.0000 6.7618
v  -25.8293 0.0000 6.7618
v  -25.8293 0.0000 17.4303
v  -25.9389 0.0000 23.1388
v  -25.8293 0.0000 23.1388
v  -25.8292 -0.0000 -27.2680
v  -25.8292 -0.0000 -21.1290
v  -25.9390 -0.0000 -21.1290
v  -25.9390 -0.0000 -27.2680
# 90 vertices

vn 0.0000 1.0000 -0.0000
vn -0.6307 0.7760 0.0000
vn 0.6307 0.7760 0.0000
vn -0.9684 0.2495 0.0000
vn -0.9684 0.2496 -0.0000
vn 0.9684 0.2496 -0.0000
vn -0.9684 0.2495 -0.0000
vn 0.9684 0.2495 -0.0000
vn 0.9796 0.2008 -0.0000
vn -0.9796 0.2008 0.0000
vn -0.0000 1.0000 -0.0000
vn -0.9789 0.2044 0.0000
vn -0.9789 0.2044 -0.0000
vn 0.9789 0.2044 0.0000
vn 0.9789 0.2044 -0.0000
# 15 vertex normals

vt 0.7927 0.2592 0.0000
vt 0.7926 0.3609 0.0000
vt 0.6303 0.3608 0.0000
vt 0.6304 0.2591 0.0000
vt 0.3518 0.8432 0.0000
vt 0.3519 0.6319 0.0000
vt 0.3646 0.6319 0.0000
vt 0.3645 0.8432 0.0000
vt 0.9207 0.2593 0.0000
vt 0.9206 0.3610 0.0000
vt 0.9892 0.2593 0.0000
vt 0.9891 0.3610 0.0000
vt 0.3762 0.9631 0.0000
vt 0.1686 0.9628 0.0000
vt 0.1687 0.8660 0.0000
vt 0.3763 0.8663 0.0000
vt 0.0969 0.9627 0.0000
vt 0.0970 0.8659 0.0000
vt 0.0973 0.6387 0.0000
vt 0.1691 0.6388 0.0000
vt 0.0498 0.5912 0.0000
vt 0.0974 0.5912 0.0000
vt 0.0498 0.6386 0.0000
vt 0.0113 0.6386 0.0000
vt 0.0114 0.5911 0.0000
vt 0.0114 0.6386 0.0000
vt 0.0981 0.1576 0.0000
vt 0.1698 0.1577 0.0000
vt 0.1691 0.5914 0.0000
vt 0.0121 0.1575 0.0000
vt 0.0982 0.1079 0.0000
vt 0.1699 0.1080 0.0000
vt 0.0122 0.1077 0.0000
vt 0.0493 0.9626 0.0000
vt 0.0495 0.8658 0.0000
vt 0.0505 0.1575 0.0000
vt 0.0506 0.1078 0.0000
vt 0.0983 0.0117 0.0000
vt 0.1701 0.0118 0.0000
vt 0.3777 0.0122 0.0000
vt 0.3775 0.1084 0.0000
vt 0.3842 0.3606 0.0000
vt 0.3162 0.3606 0.0000
vt 0.3163 0.2589 0.0000
vt 0.3843 0.2589 0.0000
vt 0.4580 0.2590 0.0000
vt 0.4579 0.3607 0.0000
vt 0.1872 0.8431 0.0000
vt 0.1874 0.6318 0.0000
vt 0.1875 0.3774 0.0000
vt 0.3520 0.3775 0.0000
vt 0.7927 0.1905 0.0000
vt 0.9207 0.1905 0.0000
vt 0.9892 0.1905 0.0000
vt 0.9207 0.1218 0.0000
vt 0.7927 0.1218 0.0000
vt 0.7928 0.0118 0.0000
vt 0.9208 0.0118 0.0000
vt 0.9892 0.1218 0.0000
vt 0.9893 0.0118 0.0000
vt 0.4580 0.1216 0.0000
vt 0.4581 0.0116 0.0000
vt 0.3844 0.1216 0.0000
vt 0.3844 0.0116 0.0000
vt 0.4580 0.1903 0.0000
vt 0.3844 0.1903 0.0000
vt 0.9936 0.9871 0.0000
vt 0.9389 0.9871 0.0000
vt 0.9389 0.3921 0.0000
vt 0.9936 0.3921 0.0000
vt 0.0160 0.6386 0.0000
vt 0.0160 0.5911 0.0000
vt 0.4392 0.9872 0.0000
vt 0.4392 0.3921 0.0000
vt 0.0167 0.1575 0.0000
vt 0.3819 0.9872 0.0000
vt 0.3819 0.3921 0.0000
vt 0.0168 0.1077 0.0000
vt 0.9389 0.3867 0.0000
vt 0.9936 0.3867 0.0000
vt 0.4392 0.3867 0.0000
vt 0.3819 0.3867 0.0000
vt 0.9207 0.1882 0.0000
vt 0.7927 0.1882 0.0000
vt 0.7927 0.1928 0.0000
vt 0.9207 0.1928 0.0000
vt 0.9892 0.1882 0.0000
vt 0.9892 0.1928 0.0000
vt 0.3844 0.1925 0.0000
vt 0.4580 0.1925 0.0000
vt 0.4580 0.1880 0.0000
vt 0.3844 0.1880 0.0000
# 92 texture coords

o floor
g floor
usemtl wire_027027031
s 1
f 1/1/1 2/2/1 3/3/1 
f 3/3/1 4/4/1 1/1/1 
f 5/5/1 6/6/1 3/7/1 
f 3/7/1 2/8/1 5/5/1 
s off
f 1/1/1 7/9/1 8/10/1 
f 8/10/1 2/2/1 1/1/1 
f 9/11/1 10/12/1 8/10/1 
f 8/10/1 7/9/1 9/11/1 
f 10/13/1 11/14/1 12/15/1 
f 12/15/1 8/16/1 10/13/1 
f 13/17/1 14/18/1 12/15/1 
f 12/15/1 11/14/1 13/17/1 
f 14/18/1 15/19/1 16/20/1 
f 16/20/1 12/15/1 14/18/1 
f 17/21/1 18/22/1 15/19/1 
f 15/19/1 19/23/1 17/21/1 
f 20/24/1 21/25/1 22/25/1 
f 22/25/1 23/26/1 20/24/1 
f 18/22/1 24/27/1 25/28/1 
f 25/28/1 26/29/1 18/22/1 
f 21/25/1 27/30/1 28/30/1 
f 28/30/1 22/25/1 21/25/1 
f 24/27/1 29/31/1 30/32/1 
f 30/32/1 25/28/1 24/27/1 
f 27/30/1 31/33/1 32/33/1 
f 32/33/1 28/30/1 27/30/1 
f 33/34/1 34/35/1 14/18/1 
f 14/18/1 13/17/1 33/34/1 
f 34/35/1 19/23/1 15/19/1 
f 15/19/1 14/18/1 34/35/1 
f 26/29/1 16/20/1 15/19/1 
f 15/19/1 18/22/1 26/29/1 
f 17/21/1 35/36/1 24/27/1 
f 24/27/1 18/22/1 17/21/1 
f 35/36/1 36/37/1 29/31/1 
f 29/31/1 24/27/1 35/36/1 
f 30/32/1 29/31/1 37/38/1 
f 37/38/1 38/39/1 30/32/1 
f 30/32/1 38/39/1 39/40/1 
f 39/40/1 40/41/1 30/32/1 
f 40/42/1 39/43/1 41/44/1 
f 41/44/1 42/45/1 40/42/1 
s 2
f 42/45/1 43/46/1 44/47/1 
f 44/47/1 40/42/1 42/45/1 
s 1
f 45/48/1 46/49/1 6/6/1 
f 6/6/1 5/5/1 45/48/1 
s off
f 6/6/1 46/49/1 47/50/1 
f 47/50/1 48/51/1 6/6/1 
s 2
f 4/4/1 3/3/1 44/47/1 
f 44/47/1 43/46/1 4/4/1 
s off
f 49/52/1 50/53/1 51/53/1 
f 51/53/1 52/52/1 49/52/1 
f 50/53/1 53/54/1 54/54/1 
f 54/54/1 51/53/1 50/53/1 
f 55/55/1 56/56/1 57/57/1 
f 57/57/1 58/58/1 55/55/1 
f 59/59/1 55/55/1 58/58/1 
f 58/58/1 60/60/1 59/59/1 
f 57/57/1 56/56/1 61/61/1 
f 61/61/1 62/62/1 57/57/1 
f 62/62/1 61/61/1 63/63/1 
f 63/63/1 64/64/1 62/62/1 
s 1
f 65/65/2 66/66/2 67/66/3 
f 67/66/3 68/65/3 65/65/2 
s off
f 69/67/1 70/68/1 71/69/1 
f 71/69/1 72/70/1 69/67/1 
f 17/21/1 19/23/1 73/71/1 
f 73/71/1 74/72/1 17/21/1 
f 70/68/1 75/73/1 76/74/1 
f 76/74/1 71/69/1 70/68/1 
f 35/36/1 17/21/1 74/72/1 
f 74/72/1 77/75/1 35/36/1 
f 75/73/1 78/76/1 79/77/1 
f 79/77/1 76/74/1 75/73/1 
f 36/37/1 35/36/1 77/75/1 
f 77/75/1 80/78/1 36/37/1 
f 72/70/4 71/69/4 21/79/4 
f 21/79/5 20/80/5 72/70/5 
f 74/72/6 73/71/6 23/26/6 
f 23/26/6 22/25/6 74/72/6 
f 71/69/7 76/74/7 27/81/7 
f 27/81/7 21/79/7 71/69/7 
f 77/75/6 74/72/6 22/25/6 
f 22/25/6 28/30/6 77/75/6 
f 76/74/5 79/77/5 31/82/5 
f 31/82/4 27/81/4 76/74/4 
f 80/78/6 77/75/6 28/30/6 
f 28/30/8 32/33/8 80/78/8 
f 56/56/1 55/55/1 81/83/1 
f 81/83/1 82/84/1 56/56/1 
f 7/9/1 1/1/1 83/85/1 
f 83/85/1 84/86/1 7/9/1 
f 55/55/1 59/59/1 85/87/1 
f 85/87/1 81/83/1 55/55/1 
f 9/11/1 7/9/1 84/86/1 
f 84/86/1 86/88/1 9/11/1 
f 82/84/9 81/83/9 50/53/9 
f 50/53/9 49/52/9 82/84/9 
f 84/86/10 83/85/10 52/52/10 
f 52/52/10 51/53/10 84/86/10 
f 81/83/9 85/87/9 53/54/9 
f 53/54/9 50/53/9 81/83/9 
f 86/88/10 84/86/10 51/53/10 
f 51/53/10 54/54/10 86/88/10 
s 4
f 43/46/11 42/45/11 87/89/11 
f 87/89/11 88/90/11 43/46/11 
s 2
f 63/63/1 61/61/1 89/91/1 
f 89/91/1 90/92/1 63/63/1 
s 1
f 88/90/12 87/89/13 66/66/2 
f 66/66/2 65/65/2 88/90/12 
f 90/92/14 89/91/15 68/65/3 
f 68/65/3 67/66/3 90/92/14 
# 112 faces

