# 3ds Max Wavefront OBJ Exporter v0.97b - (c)2007 guruware
# File Created: 15.12.2020 22:04:34

mtllib room2_3.mtl

#
# object Object003
#

v  11.4061 -0.5672 -27.2680
v  11.4061 4.9051 -27.2680
v  11.4061 4.9051 -23.0369
v  11.4061 -0.5672 -23.0369
v  -4.8018 -0.5672 -23.0369
v  10.1320 -0.5672 -23.0369
v  10.1320 4.9051 -23.0369
v  -4.8018 4.9051 -23.0369
v  -5.9550 4.9051 -27.2680
v  -5.9550 -0.5672 -27.2680
v  -5.9550 4.9051 -23.0369
v  -5.9550 -0.5672 -23.0369
# 12 vertices

vn 1.0000 0.0000 -0.0000
vn 0.0000 -0.0000 1.0000
vn -0.0000 -0.0000 -1.0000
vn -0.0000 1.0000 -0.0000
vn 0.0000 1.0000 -0.0000
vn -1.0000 0.0000 -0.0000
vn -1.0000 -0.0000 -0.0000
# 7 vertex normals

vt 0.9995 0.0050 0.0000
vt 0.9995 0.5030 0.0000
vt 0.8050 0.5030 0.0000
vt 0.8050 0.0050 0.0000
vt 0.5005 0.9982 0.0000
vt 0.5005 0.5141 0.0000
vt 0.9984 0.5141 0.0000
vt 0.9984 0.9982 0.0000
vt 0.0005 0.7587 0.0000
vt 0.0005 0.1959 0.0000
vt 0.4984 0.1959 0.0000
vt 0.4984 0.7587 0.0000
vt 0.5265 0.0005 0.0000
vt 0.5678 0.0005 0.0000
vt 0.5678 0.1950 0.0000
vt 0.0050 0.1950 0.0000
vt 0.0424 0.0005 0.0000
vt 0.0050 0.0005 0.0000
vt 0.4984 0.9586 0.0000
vt 0.0005 0.9586 0.0000
vt 0.0005 0.7641 0.0000
vt 0.4984 0.7641 0.0000
# 22 texture coords

o Object003
g Object003
usemtl 11___Default
s off
f 1/1/1 2/2/1 3/3/1 
f 3/3/1 4/4/1 1/1/1 
f 5/5/2 6/6/2 7/7/2 
f 7/7/2 8/8/2 5/5/2 
f 9/9/3 2/10/3 1/11/3 
f 1/11/3 10/12/3 9/9/3 
f 7/13/4 3/14/4 2/15/4 
f 7/13/5 2/15/5 9/16/5 
f 8/17/5 7/13/5 9/16/5 
f 8/17/5 9/16/5 11/18/5 
f 9/19/6 10/20/6 12/21/6 
f 12/21/7 11/22/7 9/19/7 
# 12 faces

