# 3ds Max Wavefront OBJ Exporter v0.97b - (c)2007 guruware
# File Created: 15.12.2020 22:28:38

mtllib room2-4.mtl

#
# object Object004
#

v  -5.9550 -0.5672 -6.7618
v  -4.8018 -0.5672 -6.7618
v  -4.8018 4.9051 -6.7618
v  -5.9550 4.9051 -6.7618
v  -4.8018 -0.5672 -23.0369
v  -4.8018 4.9051 -23.0369
v  -5.9550 4.9051 -23.0369
v  -5.9550 -0.5672 -23.0369
# 8 vertices

vn -0.0000 -0.0000 1.0000
vn 1.0000 0.0000 -0.0000
vn -1.0000 0.0000 0.0000
vn -1.0000 -0.0000 0.0000
vn -0.0000 1.0000 0.0000
vn 0.0000 1.0000 -0.0000
# 6 vertex normals

vt 0.7915 0.0005 0.0000
vt 0.8288 0.0005 0.0000
vt 0.8288 0.4973 0.0000
vt 0.7915 0.4973 0.0000
vt 0.0005 0.5027 0.0000
vt 0.7471 0.5027 0.0000
vt 0.7471 0.9995 0.0000
vt 0.0005 0.9995 0.0000
vt 0.7471 0.0005 0.0000
vt 0.7471 0.4973 0.0000
vt 0.0005 0.4973 0.0000
vt 0.0005 0.0005 0.0000
vt 0.7515 0.7471 0.0000
vt 0.7515 0.0005 0.0000
vt 0.7888 0.0005 0.0000
vt 0.7888 0.7471 0.0000
# 16 texture coords

o Object004
g Object004
usemtl 11___Default
s off
f 1/1/1 2/2/1 3/3/1 
f 3/3/1 4/4/1 1/1/1 
f 2/5/2 5/6/2 6/7/2 
f 6/7/2 3/8/2 2/5/2 
f 1/9/3 4/10/3 7/11/3 
f 7/11/4 8/12/4 1/9/4 
f 7/13/5 4/14/5 3/15/5 
f 3/15/6 6/16/6 7/13/6 
# 8 faces

