# 3ds Max Wavefront OBJ Exporter v0.97b - (c)2007 guruware
# File Created: 15.12.2020 02:20:00

mtllib wall4.mtl

#
# object Object002
#

v  17.4044 0.0000 -46.2413
v  17.4044 0.0000 -27.2680
v  17.4044 20.1360 -27.2680
v  17.4044 20.1360 -46.2412
v  67.6467 0.0000 -27.2680
v  67.6467 20.1360 -27.2680
# 6 vertices

vn -1.0000 0.0000 -0.0000
vn -0.0000 -0.0000 1.0000
# 2 vertex normals

vt 0.6526 0.0005 0.0000
vt 0.9995 0.0005 0.0000
vt 0.9995 0.9236 0.0000
vt 0.6526 0.9236 0.0000
vt 0.0005 0.9236 0.0000
vt 0.0005 0.0005 0.0000
vt 0.6482 0.0005 0.0000
vt 0.6482 0.9236 0.0000
# 8 texture coords

o Object002
g Object002
usemtl wire_027027031
s off
f 1/1/1 2/2/1 3/3/1 
f 3/3/1 4/4/1 1/1/1 
f 3/5/2 2/6/2 5/7/2 
f 5/7/2 6/8/2 3/5/2 
# 4 faces

