# 3ds Max Wavefront OBJ Exporter v0.97b - (c)2007 guruware
# File Created: 15.12.2020 16:03:09

mtllib wall7.mtl

#
# object Box014
#

v  16.9002 0.0000 -27.3682
v  16.9002 0.0000 -32.7672
v  30.4219 0.0000 -32.7672
v  30.4219 0.0000 -27.3682
v  23.0248 20.5104 -27.8065
v  30.4219 20.5104 -27.8065
v  30.4219 20.5104 -32.3289
v  23.0248 20.5104 -32.3289
v  30.4219 10.4086 -27.3682
v  17.3385 10.4086 -27.3682
v  16.9002 9.9703 -27.3682
v  30.4219 10.4086 -32.7672
v  16.9002 9.9703 -32.7672
v  17.3385 10.4086 -32.7672
v  16.9002 10.4086 -27.8065
v  16.9002 10.4086 -32.3289
v  30.4219 13.6961 -27.3682
v  21.9889 13.6961 -27.3682
v  30.4219 13.6961 -32.7672
v  21.9889 13.6961 -32.7672
v  21.5506 13.6961 -27.8065
v  21.5506 13.6961 -32.3289
v  30.4219 20.0720 -32.7672
v  30.4219 20.0720 -27.3682
v  21.9889 18.8546 -32.7672
v  23.2064 20.0720 -32.7672
v  21.5506 19.0361 -27.8065
v  21.5506 19.0361 -32.3289
v  23.2064 20.0720 -27.3682
v  21.9889 18.8546 -27.3682
v  30.0226 14.6323 -27.3682
v  27.2973 14.6323 -27.3682
v  30.0226 19.1358 -27.3682
v  27.8863 19.1358 -27.3682
v  27.2973 18.4667 -27.3682
v  30.0226 14.6323 -27.2152
v  27.2973 14.6323 -27.2152
v  30.0226 19.1358 -27.2152
v  27.8863 19.1358 -27.2152
v  27.2973 18.4667 -27.2152
v  29.9394 14.7732 -27.1529
v  27.3636 14.7732 -27.1529
v  29.9394 19.0296 -27.1529
v  27.9202 19.0296 -27.1529
v  27.3636 18.3973 -27.1529
v  28.6015 18.2192 -26.9869
v  27.7830 18.2192 -26.9869
v  27.6282 18.0172 -26.9869
v  27.6282 15.6531 -26.9869
v  28.6015 15.6531 -26.9869
v  28.7859 15.4122 -27.1529
v  27.4880 15.4122 -27.1529
v  28.7859 18.3907 -27.1529
v  27.6945 18.3907 -27.1529
v  27.4880 18.1561 -27.1529
v  23.2503 14.5195 -27.0180
v  25.4188 14.5195 -27.0180
v  25.4188 17.9690 -27.0180
v  23.2503 17.9690 -27.0180
v  23.1244 14.0747 -27.3983
v  25.5447 14.0747 -27.3983
v  25.4788 14.1928 -27.1993
v  23.1903 14.1928 -27.1993
v  25.5447 18.4138 -27.3983
v  25.4788 18.2957 -27.1993
v  25.4455 18.2116 -27.0986
v  25.4255 18.1027 -27.0382
v  25.4255 14.3858 -27.0382
v  25.4455 14.2769 -27.0986
v  23.1244 18.4138 -27.3983
v  23.1903 18.2957 -27.1993
v  23.2236 14.2769 -27.0986
v  23.2436 14.3858 -27.0382
v  23.2436 18.1027 -27.0382
v  23.2236 18.2116 -27.0986
v  24.8681 12.5887 -27.1436
v  26.3207 12.5887 -27.1436
v  26.3207 14.8993 -27.1436
v  24.8681 14.8993 -27.1436
v  24.7838 12.2907 -27.3983
v  26.4050 12.2907 -27.3983
v  26.3608 12.3698 -27.2650
v  24.8279 12.3698 -27.2650
v  26.4050 15.1973 -27.3983
v  26.3608 15.1182 -27.2650
v  26.3385 15.0618 -27.1975
v  26.3251 14.9889 -27.1571
v  26.3251 12.4991 -27.1571
v  26.3385 12.4261 -27.1976
v  24.7838 15.1973 -27.3983
v  24.8279 15.1182 -27.2650
v  24.8502 12.4261 -27.1976
v  24.8636 12.4991 -27.1571
v  24.8636 14.9889 -27.1571
v  24.8502 15.0618 -27.1975
v  30.3409 20.7275 -29.6821
v  30.1264 20.7275 -29.7709
v  30.0376 20.7275 -29.9854
v  30.1264 20.7275 -30.1999
v  30.3409 20.7275 -30.2887
v  30.5554 20.7275 -30.1999
v  30.6442 20.7275 -29.9854
v  30.5554 20.7275 -29.7709
v  30.4175 27.4987 -30.0620
v  30.4492 27.4987 -29.9854
v  30.3409 27.4987 -30.0937
v  30.2643 27.4987 -30.0620
v  30.2325 27.4987 -29.9854
v  30.2643 27.4987 -29.9088
v  30.3409 27.4987 -29.8770
v  30.4175 27.4987 -29.9088
v  30.3895 17.4882 -27.9235
v  30.1371 17.4882 -28.0281
v  30.0325 17.4882 -28.2805
v  30.1371 17.4882 -28.5329
v  30.3895 17.4882 -28.6375
v  30.6420 17.4882 -28.5329
v  30.7465 17.4882 -28.2805
v  30.6420 17.4882 -28.0281
v  30.6420 21.4305 -28.5329
v  30.7465 21.4305 -28.2805
v  30.3895 21.4305 -28.6375
v  30.1371 21.4305 -28.5329
v  30.0325 21.4305 -28.2805
v  30.1371 21.4305 -28.0281
v  30.3895 21.4305 -27.9235
v  30.6420 21.4305 -28.0281
v  30.3895 20.9244 -28.0874
v  30.2530 20.9244 -28.1440
v  30.1964 20.9244 -28.2805
v  30.2530 20.9244 -28.4171
v  30.3895 20.9244 -28.4736
v  30.5261 20.9244 -28.4171
v  30.5826 20.9244 -28.2805
v  30.5261 20.9244 -28.1440
v  30.4383 25.2351 -28.3293
v  30.4585 25.2351 -28.2805
v  30.3895 25.2351 -28.3495
v  30.3408 25.2351 -28.3293
v  30.3206 25.2351 -28.2805
v  30.3408 25.2351 -28.2317
v  30.3895 25.2351 -28.2115
v  30.4383 25.2351 -28.2317
v  30.3409 15.3297 -29.4246
v  29.9443 15.3297 -29.5889
v  29.7801 15.3297 -29.9854
v  29.9443 15.3297 -30.3819
v  30.3409 15.3297 -30.5462
v  30.7374 15.3297 -30.3819
v  30.9017 15.3297 -29.9854
v  30.7374 15.3297 -29.5889
v  30.7374 21.5223 -30.3819
v  30.9017 21.5223 -29.9854
v  30.3409 21.5223 -30.5462
v  29.9443 21.5223 -30.3819
v  29.7801 21.5223 -29.9854
v  29.9443 21.5223 -29.5889
v  30.3409 21.5223 -29.4246
v  30.7374 21.5223 -29.5889
# 159 vertices

vn 0.0000 -1.0000 -0.0000
vn 0.0000 1.0000 -0.0000
vn 0.0000 0.0000 1.0000
vn 1.0000 0.0000 -0.0000
vn 0.0000 0.0000 -1.0000
vn -1.0000 0.0000 -0.0000
vn -0.5772 0.8166 -0.0000
vn -0.7071 0.7071 -0.0000
vn -0.5774 0.5774 0.5774
vn -0.5267 0.6673 0.5267
vn -0.5424 0.6416 0.5424
vn -0.5774 0.5774 -0.5774
vn -0.5424 0.6416 -0.5424
vn -0.5267 0.6673 -0.5267
vn -0.4999 0.7072 0.4999
vn -0.4999 0.7072 -0.4999
vn 0.0000 0.7071 0.7071
vn 0.0000 0.7071 -0.7071
vn -0.7071 0.0000 0.7071
vn -0.7071 0.0000 -0.7071
vn -0.5000 0.5000 0.7071
vn -0.5000 0.5000 -0.7071
vn -0.7506 0.6607 -0.0000
vn 0.0000 -0.4047 0.9145
vn 0.5995 0.0000 0.8004
vn 0.0000 0.5064 0.8623
vn -0.4099 0.3608 0.8377
vn -0.6853 0.0000 0.7283
vn 0.0000 -0.5674 0.8235
vn 0.6690 0.0000 0.7432
vn 0.0000 0.6956 0.7184
vn -0.4836 0.4257 0.7647
vn -0.5470 0.4191 0.7246
vn -0.7641 0.0000 0.6451
vn 0.0000 -0.0758 0.9971
vn 0.0000 0.0758 0.9971
vn 0.0000 -0.8600 0.5103
vn 0.0000 -0.8240 0.5666
vn 0.9494 -0.0000 0.3142
vn 0.9494 0.0000 0.3142
vn 0.0000 0.8600 0.5103
vn 0.0000 0.8240 0.5666
vn -0.9494 -0.0000 0.3142
vn -0.9494 0.0000 0.3142
vn -0.9493 -0.0000 0.3142
vn 0.0000 -0.3331 0.9429
vn 0.0000 0.3331 0.9429
vn 0.0000 -0.6551 0.7556
vn 0.0000 0.6551 0.7556
vn 0.9996 0.0288 -0.0000
vn 0.7068 0.0288 -0.7068
vn -0.0000 0.0288 -0.9996
vn -0.7068 0.0288 -0.7068
vn -0.9996 0.0288 0.0000
vn -0.7068 0.0288 0.7068
vn 0.0000 0.0288 0.9996
vn 0.7068 0.0288 0.7068
vn 0.7071 0.0000 -0.7071
vn -0.0000 0.0000 -1.0000
vn -1.0000 0.0000 0.0000
vn 0.7071 0.0000 0.7071
vn 0.9996 0.0288 0.0000
# 62 vertex normals

vt 0.6345 0.0005 0.0000
vt 0.8005 0.0005 0.0000
vt 0.8005 0.4162 0.0000
vt 0.6345 0.4162 0.0000
vt 0.7735 0.7541 0.0000
vt 0.7735 0.9815 0.0000
vt 0.6345 0.9815 0.0000
vt 0.6345 0.7541 0.0000
vt 0.0005 0.4162 0.0000
vt 0.0005 0.0005 0.0000
vt 0.3205 0.0005 0.0000
vt 0.3205 0.4027 0.0000
vt 0.3070 0.4162 0.0000
vt 0.8128 0.0055 0.0000
vt 0.9788 0.0055 0.0000
vt 0.9788 0.3254 0.0000
vt 0.8128 0.3254 0.0000
vt 0.0005 0.5701 0.0000
vt 0.3070 0.5701 0.0000
vt 0.3205 0.5836 0.0000
vt 0.0005 0.9858 0.0000
vt 0.3205 0.9858 0.0000
vt 0.8009 0.5875 0.0000
vt 0.4944 0.5875 0.0000
vt 0.4809 0.5740 0.0000
vt 0.8009 0.4215 0.0000
vt 0.4809 0.4350 0.0000
vt 0.4944 0.4215 0.0000
vt 0.4215 0.0005 0.0000
vt 0.4215 0.2597 0.0000
vt 0.9788 0.4265 0.0000
vt 0.8128 0.4265 0.0000
vt 0.4215 0.7265 0.0000
vt 0.4215 0.9858 0.0000
vt 0.7781 0.9702 0.0000
vt 0.7781 0.8312 0.0000
vt 0.9211 0.8312 0.0000
vt 0.9211 0.9702 0.0000
vt 0.9788 0.6225 0.0000
vt 0.9653 0.6360 0.0000
vt 0.8263 0.6360 0.0000
vt 0.8128 0.6225 0.0000
vt 0.5801 0.7265 0.0000
vt 0.6175 0.7640 0.0000
vt 0.6175 0.9858 0.0000
vt 0.9770 0.6394 0.0000
vt 0.9770 0.7785 0.0000
vt 0.8128 0.7785 0.0000
vt 0.8128 0.6394 0.0000
vt 0.6345 0.7088 0.0000
vt 0.7735 0.7088 0.0000
vt 0.3685 0.4458 0.0000
vt 0.3496 0.4484 0.0000
vt 0.3567 0.4308 0.0000
vt 0.3573 0.5883 0.0000
vt 0.3408 0.5978 0.0000
vt 0.3408 0.5788 0.0000
vt 0.7916 0.8177 0.0000
vt 0.9346 0.8177 0.0000
vt 0.7916 0.9837 0.0000
vt 0.9346 0.9837 0.0000
vt 0.6310 0.2279 0.0000
vt 0.6175 0.2223 0.0000
vt 0.6175 0.0005 0.0000
vt 0.6310 0.0005 0.0000
vt 0.6310 0.9858 0.0000
vt 0.6310 0.7584 0.0000
vt 0.4215 0.2732 0.0000
vt 0.5801 0.2597 0.0000
vt 0.5857 0.2732 0.0000
vt 0.4215 0.7131 0.0000
vt 0.5857 0.7131 0.0000
vt 0.0640 0.4215 0.0000
vt 0.0611 0.4409 0.0000
vt 0.0086 0.4482 0.0000
vt 0.0005 0.4304 0.0000
vt 0.0104 0.4647 0.0000
vt 0.0246 0.4512 0.0000
vt 0.0705 0.4777 0.0000
vt 0.0659 0.4967 0.0000
vt 0.4503 0.0128 0.0000
vt 0.4503 0.0966 0.0000
vt 0.5888 0.0128 0.0000
vt 0.5888 0.0785 0.0000
vt 0.5682 0.0966 0.0000
vt 0.2985 0.4418 0.0000
vt 0.2147 0.4418 0.0000
vt 0.2147 0.4371 0.0000
vt 0.2985 0.4371 0.0000
vt 0.2985 0.4314 0.0000
vt 0.1600 0.4314 0.0000
vt 0.1600 0.4267 0.0000
vt 0.2985 0.4267 0.0000
vt 0.1485 0.4371 0.0000
vt 0.2142 0.4371 0.0000
vt 0.2142 0.4418 0.0000
vt 0.1485 0.4418 0.0000
vt 0.1600 0.4319 0.0000
vt 0.1806 0.4319 0.0000
vt 0.1806 0.4366 0.0000
vt 0.1600 0.4366 0.0000
vt 0.2985 0.4319 0.0000
vt 0.2985 0.4366 0.0000
vt 0.8027 0.5899 0.0000
vt 0.8027 0.6737 0.0000
vt 0.7983 0.6711 0.0000
vt 0.7983 0.5919 0.0000
vt 0.6642 0.6737 0.0000
vt 0.6675 0.6711 0.0000
vt 0.6642 0.6080 0.0000
vt 0.6675 0.6091 0.0000
vt 0.6848 0.5899 0.0000
vt 0.6869 0.5919 0.0000
vt 0.6924 0.6300 0.0000
vt 0.6924 0.6048 0.0000
vt 0.6986 0.6001 0.0000
vt 0.7713 0.6001 0.0000
vt 0.7713 0.6300 0.0000
vt 0.7787 0.6357 0.0000
vt 0.7787 0.5958 0.0000
vt 0.6871 0.6357 0.0000
vt 0.6871 0.6021 0.0000
vt 0.6943 0.5958 0.0000
vt 0.9862 0.5752 0.0000
vt 0.9862 0.4908 0.0000
vt 0.9928 0.4983 0.0000
vt 0.9928 0.5709 0.0000
vt 0.6440 0.5907 0.0000
vt 0.6440 0.6574 0.0000
vt 0.5379 0.6574 0.0000
vt 0.5379 0.5907 0.0000
vt 0.5305 0.3868 0.0000
vt 0.6049 0.3868 0.0000
vt 0.6029 0.3930 0.0000
vt 0.5325 0.3930 0.0000
vt 0.9929 0.1388 0.0000
vt 0.9868 0.1352 0.0000
vt 0.9837 0.1326 0.0000
vt 0.9818 0.1293 0.0000
vt 0.9812 0.1252 0.0000
vt 0.9929 0.0055 0.0000
vt 0.9812 0.0191 0.0000
vt 0.9818 0.0150 0.0000
vt 0.9837 0.0117 0.0000
vt 0.9868 0.0091 0.0000
vt 0.6296 0.3762 0.0000
vt 0.5552 0.3762 0.0000
vt 0.5573 0.3701 0.0000
vt 0.6276 0.3701 0.0000
vt 0.9812 0.1491 0.0000
vt 0.9873 0.1527 0.0000
vt 0.9904 0.1553 0.0000
vt 0.9923 0.1587 0.0000
vt 0.9929 0.1628 0.0000
vt 0.9812 0.2825 0.0000
vt 0.9929 0.2688 0.0000
vt 0.9923 0.2729 0.0000
vt 0.9904 0.2763 0.0000
vt 0.9873 0.2789 0.0000
vt 0.6481 0.6576 0.0000
vt 0.6481 0.5905 0.0000
vt 0.5338 0.5905 0.0000
vt 0.5338 0.6576 0.0000
vt 0.6514 0.6582 0.0000
vt 0.6514 0.5899 0.0000
vt 0.6018 0.3961 0.0000
vt 0.5335 0.3961 0.0000
vt 0.5305 0.5899 0.0000
vt 0.5305 0.6582 0.0000
vt 0.5583 0.3670 0.0000
vt 0.6266 0.3670 0.0000
vt 0.0765 0.5063 0.0000
vt 0.0765 0.5509 0.0000
vt 0.0055 0.5509 0.0000
vt 0.0055 0.5063 0.0000
vt 0.0698 0.4215 0.0000
vt 0.1197 0.4215 0.0000
vt 0.1183 0.4256 0.0000
vt 0.0712 0.4256 0.0000
vt 0.9890 0.3821 0.0000
vt 0.9849 0.3797 0.0000
vt 0.9829 0.3779 0.0000
vt 0.9816 0.3757 0.0000
vt 0.9812 0.3729 0.0000
vt 0.9890 0.2927 0.0000
vt 0.9812 0.3019 0.0000
vt 0.9816 0.2991 0.0000
vt 0.9829 0.2969 0.0000
vt 0.9849 0.2952 0.0000
vt 0.6249 0.9973 0.0000
vt 0.5751 0.9973 0.0000
vt 0.5764 0.9932 0.0000
vt 0.6235 0.9932 0.0000
vt 0.9812 0.3967 0.0000
vt 0.9853 0.3992 0.0000
vt 0.9874 0.4009 0.0000
vt 0.9886 0.4031 0.0000
vt 0.9890 0.4059 0.0000
vt 0.9812 0.4861 0.0000
vt 0.9890 0.4769 0.0000
vt 0.9886 0.4797 0.0000
vt 0.9874 0.4819 0.0000
vt 0.9853 0.4837 0.0000
vt 0.0793 0.5510 0.0000
vt 0.0793 0.5061 0.0000
vt 0.0027 0.5061 0.0000
vt 0.0027 0.5510 0.0000
vt 0.0815 0.5515 0.0000
vt 0.0815 0.5057 0.0000
vt 0.1176 0.4277 0.0000
vt 0.0719 0.4277 0.0000
vt 0.0005 0.5057 0.0000
vt 0.0005 0.5515 0.0000
vt 0.5771 0.9911 0.0000
vt 0.6228 0.9911 0.0000
vt 0.3028 0.4834 0.0000
vt 0.2977 0.4784 0.0000
vt 0.2977 0.4712 0.0000
vt 0.3027 0.4661 0.0000
vt 0.3098 0.4661 0.0000
vt 0.3149 0.4711 0.0000
vt 0.3150 0.4782 0.0000
vt 0.3100 0.4833 0.0000
vt 0.2913 0.5268 0.0000
vt 0.2913 0.5334 0.0000
vt 0.0832 0.5292 0.0000
vt 0.0832 0.5268 0.0000
vt 0.2913 0.5065 0.0000
vt 0.2913 0.5131 0.0000
vt 0.0832 0.5131 0.0000
vt 0.0832 0.5108 0.0000
vt 0.2913 0.5197 0.0000
vt 0.0832 0.5155 0.0000
vt 0.2913 0.4929 0.0000
vt 0.2913 0.4994 0.0000
vt 0.0832 0.4994 0.0000
vt 0.0832 0.4971 0.0000
vt 0.2913 0.5060 0.0000
vt 0.0832 0.5018 0.0000
vt 0.2913 0.4792 0.0000
vt 0.2913 0.4858 0.0000
vt 0.0832 0.4858 0.0000
vt 0.0832 0.4834 0.0000
vt 0.2913 0.4924 0.0000
vt 0.0832 0.4881 0.0000
vt 0.2913 0.5202 0.0000
vt 0.0832 0.5245 0.0000
vt 0.0765 0.4810 0.0000
vt 0.0783 0.4792 0.0000
vt 0.0808 0.4792 0.0000
vt 0.0826 0.4810 0.0000
vt 0.0827 0.4835 0.0000
vt 0.0809 0.4853 0.0000
vt 0.0783 0.4854 0.0000
vt 0.0765 0.4836 0.0000
vt 0.6158 0.4072 0.0000
vt 0.6098 0.4013 0.0000
vt 0.6097 0.3929 0.0000
vt 0.6156 0.3869 0.0000
vt 0.6240 0.3868 0.0000
vt 0.6300 0.3927 0.0000
vt 0.6301 0.4011 0.0000
vt 0.6242 0.4071 0.0000
vt 0.1663 0.4540 0.0000
vt 0.1663 0.4618 0.0000
vt 0.0451 0.4618 0.0000
vt 0.0451 0.4540 0.0000
vt 0.3000 0.4463 0.0000
vt 0.3000 0.4540 0.0000
vt 0.1788 0.4540 0.0000
vt 0.1788 0.4463 0.0000
vt 0.3000 0.4618 0.0000
vt 0.1788 0.4618 0.0000
vt 0.6097 0.2333 0.0000
vt 0.6175 0.2333 0.0000
vt 0.6175 0.3545 0.0000
vt 0.6097 0.3545 0.0000
vt 0.6252 0.2333 0.0000
vt 0.6252 0.3545 0.0000
vt 0.3373 0.4512 0.0000
vt 0.3451 0.4512 0.0000
vt 0.3451 0.5724 0.0000
vt 0.3373 0.5724 0.0000
vt 0.3528 0.4512 0.0000
vt 0.3528 0.5724 0.0000
vt 0.1663 0.4463 0.0000
vt 0.0451 0.4463 0.0000
vt 0.3279 0.4259 0.0000
vt 0.3221 0.4319 0.0000
vt 0.3137 0.4320 0.0000
vt 0.3077 0.4261 0.0000
vt 0.3076 0.4177 0.0000
vt 0.3135 0.4117 0.0000
vt 0.3219 0.4116 0.0000
vt 0.3279 0.4175 0.0000
vt 0.9845 0.6009 0.0000
vt 0.9812 0.5977 0.0000
vt 0.9812 0.5932 0.0000
vt 0.9844 0.5899 0.0000
vt 0.9889 0.5899 0.0000
vt 0.9922 0.5931 0.0000
vt 0.9922 0.5976 0.0000
vt 0.9890 0.6009 0.0000
vt 0.4203 0.9953 0.0000
vt 0.4203 0.9995 0.0000
vt 0.2878 0.9968 0.0000
vt 0.2878 0.9953 0.0000
vt 0.5639 0.9911 0.0000
vt 0.5639 0.9953 0.0000
vt 0.4314 0.9953 0.0000
vt 0.4314 0.9938 0.0000
vt 0.5639 0.9995 0.0000
vt 0.4314 0.9968 0.0000
vt 0.2767 0.9911 0.0000
vt 0.2767 0.9953 0.0000
vt 0.1441 0.9953 0.0000
vt 0.1441 0.9938 0.0000
vt 0.2767 0.9995 0.0000
vt 0.1441 0.9968 0.0000
vt 0.1330 0.9911 0.0000
vt 0.1330 0.9953 0.0000
vt 0.0005 0.9953 0.0000
vt 0.0005 0.9938 0.0000
vt 0.1330 0.9995 0.0000
vt 0.0005 0.9968 0.0000
vt 0.4203 0.9911 0.0000
vt 0.2878 0.9938 0.0000
vt 0.0787 0.4940 0.0000
vt 0.0799 0.4929 0.0000
vt 0.0815 0.4929 0.0000
vt 0.0827 0.4940 0.0000
vt 0.0827 0.4956 0.0000
vt 0.0815 0.4968 0.0000
vt 0.0799 0.4968 0.0000
vt 0.0788 0.4957 0.0000
vt 0.3023 0.5575 0.0000
vt 0.2928 0.5482 0.0000
vt 0.2927 0.5350 0.0000
vt 0.3020 0.5256 0.0000
vt 0.3152 0.5255 0.0000
vt 0.3246 0.5348 0.0000
vt 0.3247 0.5480 0.0000
vt 0.3154 0.5574 0.0000
vt 0.5723 0.3297 0.0000
vt 0.5723 0.3419 0.0000
vt 0.3819 0.3419 0.0000
vt 0.3819 0.3297 0.0000
vt 0.5524 0.3522 0.0000
vt 0.5524 0.3644 0.0000
vt 0.3621 0.3644 0.0000
vt 0.3621 0.3522 0.0000
vt 0.5524 0.3765 0.0000
vt 0.3621 0.3765 0.0000
vt 0.5970 0.2828 0.0000
vt 0.5970 0.2950 0.0000
vt 0.4066 0.2950 0.0000
vt 0.4066 0.2828 0.0000
vt 0.5970 0.3072 0.0000
vt 0.4066 0.3072 0.0000
vt 0.5277 0.3868 0.0000
vt 0.5277 0.3990 0.0000
vt 0.3373 0.3990 0.0000
vt 0.3373 0.3868 0.0000
vt 0.5277 0.4112 0.0000
vt 0.3373 0.4112 0.0000
vt 0.5723 0.3175 0.0000
vt 0.3819 0.3175 0.0000
vt 0.6268 0.7312 0.0000
vt 0.6176 0.7406 0.0000
vt 0.6044 0.7408 0.0000
vt 0.5950 0.7315 0.0000
vt 0.5949 0.7183 0.0000
vt 0.6041 0.7089 0.0000
vt 0.6173 0.7088 0.0000
vt 0.6267 0.7180 0.0000
# 375 texture coords

o Box014
g Box014
usemtl 08___Default
s 1
f 1/1/1 2/2/1 3/3/1 
f 3/3/1 4/4/1 1/1/1 
f 5/5/2 6/6/2 7/7/2 
f 7/7/2 8/8/2 5/5/2 
s 2
f 1/9/3 4/10/3 9/11/3 
f 9/11/3 10/12/3 11/13/3 
f 1/9/3 9/11/3 11/13/3 
s 4
f 4/14/4 3/15/4 12/16/4 
f 12/16/4 9/17/4 4/14/4 
s 2
f 2/18/5 13/19/5 14/20/5 
f 3/21/5 2/18/5 14/20/5 
f 3/21/5 14/20/5 12/22/5 
s 4
f 1/23/6 11/24/6 15/25/6 
f 2/26/6 1/23/6 15/25/6 
f 15/25/6 16/27/6 13/28/6 
f 2/26/6 15/25/6 13/28/6 
s 2
f 10/12/3 9/11/3 17/29/3 
f 17/29/3 18/30/3 10/12/3 
s 4
f 9/17/4 12/16/4 19/31/4 
f 19/31/4 17/32/4 9/17/4 
s 2
f 12/22/5 14/20/5 20/33/5 
f 20/33/5 19/34/5 12/22/5 
s 16
f 16/35/7 15/36/7 21/37/7 
f 21/37/7 22/38/7 16/35/7 
s 4
f 19/31/4 23/39/4 7/40/4 
f 17/32/4 19/31/4 7/40/4 
f 7/40/4 6/41/4 24/42/4 
f 17/32/4 7/40/4 24/42/4 
s 2
f 20/33/5 25/43/5 26/44/5 
f 19/34/5 20/33/5 26/44/5 
f 19/34/5 26/44/5 23/45/5 
f 22/46/6 21/47/6 27/48/6 
f 27/48/6 28/49/6 22/46/6 
s 4
f 8/8/8 28/50/8 27/51/8 
f 27/51/8 5/5/8 8/8/8 
s 1
f 11/52/9 10/53/10 15/54/11 
f 13/55/12 16/56/13 14/57/14 
f 15/36/11 10/58/10 18/59/15 
f 18/59/15 21/37/15 15/36/11 
f 14/60/14 16/35/13 22/38/16 
f 22/38/16 20/61/16 14/60/14 
s 8
f 5/62/17 29/63/17 24/64/17 
f 24/64/17 6/65/17 5/62/17 
f 7/66/18 23/45/18 26/44/18 
f 26/44/18 8/67/18 7/66/18 
f 21/68/19 18/30/19 30/69/19 
f 30/69/19 27/70/19 21/68/19 
f 20/33/20 22/71/20 28/72/20 
f 28/72/20 25/43/20 20/33/20 
s 16
f 27/73/21 30/74/21 29/75/21 
f 29/75/21 5/76/21 27/73/21 
f 8/77/22 26/78/22 25/79/22 
f 25/79/22 28/80/22 8/77/22 
s off
f 18/30/3 17/29/3 31/81/3 
f 31/81/3 32/82/3 18/30/3 
f 17/29/3 24/64/3 33/83/3 
f 33/83/3 31/81/3 17/29/3 
f 24/64/3 29/63/3 34/84/3 
f 34/84/3 33/83/3 24/64/3 
f 29/63/3 30/69/3 35/85/3 
f 35/85/3 34/84/3 29/63/3 
f 30/69/3 18/30/3 32/82/3 
f 32/82/3 35/85/3 30/69/3 
f 32/86/1 31/87/1 36/88/1 
f 36/88/1 37/89/1 32/86/1 
f 31/90/4 33/91/4 38/92/4 
f 38/92/4 36/93/4 31/90/4 
f 33/94/2 34/95/2 39/96/2 
f 39/96/2 38/97/2 33/94/2 
f 34/98/23 35/99/23 40/100/23 
f 40/100/23 39/101/23 34/98/23 
f 35/99/6 32/102/6 37/103/6 
f 37/103/6 40/100/6 35/99/6 
f 37/104/24 36/105/24 41/106/24 
f 41/106/24 42/107/24 37/104/24 
f 36/105/25 38/108/25 43/109/25 
f 43/109/25 41/106/25 36/105/25 
f 38/108/26 39/110/26 44/111/26 
f 44/111/26 43/109/26 38/108/26 
f 39/110/27 40/112/27 45/113/27 
f 45/113/27 44/111/27 39/110/27 
f 40/112/28 37/104/28 42/107/28 
f 42/107/28 45/113/28 40/112/28 
f 46/114/3 47/115/3 48/116/3 
f 46/114/3 48/116/3 49/117/3 
f 50/118/3 46/114/3 49/117/3 
f 42/107/3 41/106/3 51/119/3 
f 51/119/3 52/120/3 42/107/3 
f 41/106/3 43/109/3 53/121/3 
f 53/121/3 51/119/3 41/106/3 
f 43/109/3 44/111/3 54/122/3 
f 54/122/3 53/121/3 43/109/3 
f 44/111/3 45/113/3 55/123/3 
f 55/123/3 54/122/3 44/111/3 
f 45/113/3 42/107/3 52/120/3 
f 52/120/3 55/123/3 45/113/3 
f 52/120/29 51/119/29 50/118/29 
f 50/118/29 49/117/29 52/120/29 
f 51/119/30 53/121/30 46/114/30 
f 46/114/30 50/118/30 51/119/30 
f 53/121/31 54/122/31 47/115/31 
f 47/115/31 46/114/31 53/121/31 
f 54/122/32 55/123/32 48/116/32 
f 48/116/33 47/115/33 54/122/33 
f 55/124/34 52/125/34 49/126/34 
f 49/126/34 48/127/34 55/124/34 
s 1
f 56/128/35 57/129/35 58/130/36 
f 58/130/36 59/131/36 56/128/35 
f 60/132/37 61/133/37 62/134/38 
f 62/134/38 63/135/38 60/132/37 
s 2
f 64/136/39 65/137/39 66/138/40 
f 64/136/39 66/138/40 67/139/39 
f 64/136/39 67/139/39 58/140/39 
f 61/141/39 64/136/39 58/140/39 
f 58/140/39 57/142/39 68/143/39 
f 58/140/39 68/143/39 69/144/39 
f 58/140/39 69/144/39 62/145/39 
f 61/141/39 58/140/39 62/145/39 
s 1
f 64/146/41 70/147/41 71/148/42 
f 71/148/42 65/149/42 64/146/41 
s 2
f 60/150/43 63/151/43 72/152/43 
f 60/150/43 72/152/43 73/153/44 
f 60/150/43 73/153/44 56/154/44 
f 70/155/43 60/150/43 56/154/44 
f 56/154/44 59/156/45 74/157/43 
f 56/154/44 74/157/43 75/158/43 
f 56/154/44 75/158/43 71/159/43 
f 70/155/43 56/154/44 71/159/43 
s 1
f 68/160/46 57/129/35 56/128/35 
f 56/128/35 73/161/46 68/160/46 
f 74/162/47 59/131/36 58/130/36 
f 58/130/36 67/163/47 74/162/47 
f 69/164/48 68/160/46 73/161/46 
f 73/161/46 72/165/48 69/164/48 
f 62/134/38 69/166/48 72/167/48 
f 72/167/48 63/135/38 62/134/38 
f 75/168/49 74/162/47 67/163/47 
f 67/163/47 66/169/49 75/168/49 
f 71/148/42 75/170/49 66/171/49 
f 66/171/49 65/149/42 71/148/42 
f 76/172/35 77/173/35 78/174/36 
f 78/174/36 79/175/36 76/172/35 
f 80/176/37 81/177/37 82/178/38 
f 82/178/38 83/179/38 80/176/37 
s 2
f 84/180/40 85/181/40 86/182/40 
f 84/180/40 86/182/40 87/183/39 
f 84/180/40 87/183/39 78/184/39 
f 81/185/39 84/180/40 78/184/39 
f 78/184/39 77/186/39 88/187/39 
f 78/184/39 88/187/39 89/188/39 
f 78/184/39 89/188/39 82/189/39 
f 81/185/39 78/184/39 82/189/39 
s 1
f 84/190/41 90/191/41 91/192/42 
f 91/192/42 85/193/42 84/190/41 
s 2
f 80/194/43 83/195/43 92/196/43 
f 80/194/43 92/196/43 93/197/44 
f 80/194/43 93/197/44 76/198/44 
f 90/199/43 80/194/43 76/198/44 
f 76/198/44 79/200/45 94/201/43 
f 76/198/44 94/201/43 95/202/43 
f 76/198/44 95/202/43 91/203/43 
f 90/199/43 76/198/44 91/203/43 
s 1
f 88/204/46 77/173/35 76/172/35 
f 76/172/35 93/205/46 88/204/46 
f 94/206/47 79/175/36 78/174/36 
f 78/174/36 87/207/47 94/206/47 
f 89/208/48 88/204/46 93/205/46 
f 93/205/46 92/209/48 89/208/48 
f 82/178/38 89/210/48 92/211/48 
f 92/211/48 83/179/38 82/178/38 
f 95/212/49 94/206/47 87/207/47 
f 87/207/47 86/213/49 95/212/49 
f 91/192/42 95/214/49 86/215/49 
f 86/215/49 85/193/42 91/192/42 
f 96/216/1 97/217/1 98/218/1 
f 98/218/1 99/219/1 100/220/1 
f 100/220/1 101/221/1 102/222/1 
f 98/218/1 100/220/1 102/222/1 
f 96/216/1 98/218/1 102/222/1 
f 103/223/1 96/216/1 102/222/1 
s 8
f 102/224/50 101/225/51 104/226/51 
f 104/226/51 105/227/50 102/224/50 
f 101/228/51 100/229/52 106/230/52 
f 106/230/52 104/231/51 101/228/51 
f 100/229/52 99/232/53 107/233/53 
f 107/233/53 106/230/52 100/229/52 
f 99/234/53 98/235/54 108/236/54 
f 108/236/54 107/237/53 99/234/53 
f 98/235/54 97/238/55 109/239/55 
f 109/239/55 108/236/54 98/235/54 
f 97/240/55 96/241/56 110/242/56 
f 110/242/56 109/243/55 97/240/55 
f 96/241/56 103/244/57 111/245/57 
f 111/245/57 110/242/56 96/241/56 
f 103/246/57 102/224/50 105/227/50 
f 105/227/50 111/247/57 103/246/57 
s 1
f 105/248/2 104/249/2 106/250/2 
f 106/250/2 107/251/2 108/252/2 
f 108/252/2 109/253/2 110/254/2 
f 106/250/2 108/252/2 110/254/2 
f 105/248/2 106/250/2 110/254/2 
f 111/255/2 105/248/2 110/254/2 
f 112/256/1 113/257/1 114/258/1 
f 114/258/1 115/259/1 116/260/1 
f 116/260/1 117/261/1 118/262/1 
f 114/258/1 116/260/1 118/262/1 
f 112/256/1 114/258/1 118/262/1 
f 119/263/1 112/256/1 118/262/1 
s 8
f 118/264/4 117/265/58 120/266/58 
f 120/266/58 121/267/4 118/264/4 
f 117/268/58 116/269/59 122/270/5 
f 122/270/5 120/271/58 117/268/58 
f 116/269/59 115/272/20 123/273/20 
f 123/273/20 122/270/5 116/269/59 
f 115/274/20 114/275/60 124/276/6 
f 124/276/6 123/277/20 115/274/20 
f 114/275/60 113/278/19 125/279/19 
f 125/279/19 124/276/6 114/275/60 
f 113/280/19 112/281/3 126/282/3 
f 126/282/3 125/283/19 113/280/19 
f 112/281/3 119/284/61 127/285/61 
f 127/285/61 126/282/3 112/281/3 
f 119/286/61 118/264/4 121/267/4 
f 121/267/4 127/287/61 119/286/61 
s 1
f 121/288/2 120/289/2 122/290/2 
f 122/290/2 123/291/2 124/292/2 
f 124/292/2 125/293/2 126/294/2 
f 122/290/2 124/292/2 126/294/2 
f 121/288/2 122/290/2 126/294/2 
f 127/295/2 121/288/2 126/294/2 
f 128/296/1 129/297/1 130/298/1 
f 130/298/1 131/299/1 132/300/1 
f 132/300/1 133/301/1 134/302/1 
f 130/298/1 132/300/1 134/302/1 
f 128/296/1 130/298/1 134/302/1 
f 135/303/1 128/296/1 134/302/1 
s 8
f 134/304/62 133/305/51 136/306/51 
f 136/306/51 137/307/50 134/304/62 
f 133/308/51 132/309/52 138/310/52 
f 138/310/52 136/311/51 133/308/51 
f 132/309/52 131/312/53 139/313/53 
f 139/313/53 138/310/52 132/309/52 
f 131/314/53 130/315/54 140/316/54 
f 140/316/54 139/317/53 131/314/53 
f 130/315/54 129/318/55 141/319/55 
f 141/319/55 140/316/54 130/315/54 
f 129/320/55 128/321/56 142/322/56 
f 142/322/56 141/323/55 129/320/55 
f 128/321/56 135/324/57 143/325/57 
f 143/325/57 142/322/56 128/321/56 
f 135/326/57 134/304/62 137/307/50 
f 137/307/50 143/327/57 135/326/57 
s 1
f 137/328/2 136/329/2 138/330/2 
f 138/330/2 139/331/2 140/332/2 
f 140/332/2 141/333/2 142/334/2 
f 138/330/2 140/332/2 142/334/2 
f 137/328/2 138/330/2 142/334/2 
f 143/335/2 137/328/2 142/334/2 
f 144/336/1 145/337/1 146/338/1 
f 146/338/1 147/339/1 148/340/1 
f 148/340/1 149/341/1 150/342/1 
f 146/338/1 148/340/1 150/342/1 
f 144/336/1 146/338/1 150/342/1 
f 151/343/1 144/336/1 150/342/1 
s 8
f 150/344/4 149/345/58 152/346/58 
f 152/346/58 153/347/4 150/344/4 
f 149/348/58 148/349/5 154/350/59 
f 154/350/59 152/351/58 149/348/58 
f 148/349/5 147/352/20 155/353/20 
f 155/353/20 154/350/59 148/349/5 
f 147/354/20 146/355/60 156/356/60 
f 156/356/60 155/357/20 147/354/20 
f 146/355/60 145/358/19 157/359/19 
f 157/359/19 156/356/60 146/355/60 
f 145/360/19 144/361/3 158/362/3 
f 158/362/3 157/363/19 145/360/19 
f 144/361/3 151/364/61 159/365/61 
f 159/365/61 158/362/3 144/361/3 
f 151/366/61 150/344/4 153/347/4 
f 153/347/4 159/367/61 151/366/61 
s 1
f 153/368/2 152/369/2 154/370/2 
f 154/370/2 155/371/2 156/372/2 
f 156/372/2 157/373/2 158/374/2 
f 154/370/2 156/372/2 158/374/2 
f 153/368/2 154/370/2 158/374/2 
f 159/375/2 153/368/2 158/374/2 
# 286 faces

